<svg width="41" height="41" viewBox="0 0 41 41" fill="none" xmlns="http://www.w3.org/2000/svg">
<g clip-path="url(#clip0_12102_2070)">
<path d="M0.5 20.3333C0.5 9.28756 9.45431 0.333252 20.5 0.333252C31.5457 0.333252 40.5 9.28756 40.5 20.3333C40.5 31.3789 31.5457 40.3333 20.5 40.3333C9.45431 40.3333 0.5 31.3789 0.5 20.3333Z" fill="#F9FAFB"/>
<path d="M1.5 20.3333C1.5 9.83984 10.0066 1.33325 20.5 1.33325C30.9934 1.33325 39.5 9.83984 39.5 20.3333C39.5 30.8267 30.9934 39.3333 20.5 39.3333C10.0066 39.3333 1.5 30.8267 1.5 20.3333Z" stroke="#EAECF0" stroke-width="2"/>
<circle cx="20.5" cy="20.3333" r="6" fill="#D0D5DD"/>
</g>
<defs>
<clipPath id="clip0_12102_2070">
<path d="M0.5 20.3333C0.5 9.28756 9.45431 0.333252 20.5 0.333252C31.5457 0.333252 40.5 9.28756 40.5 20.3333C40.5 31.3789 31.5457 40.3333 20.5 40.3333C9.45431 40.3333 0.5 31.3789 0.5 20.3333Z" fill="white"/>
</clipPath>
</defs>
</svg>
