<?xml version="1.0" encoding="utf-8"?>
<svg viewBox="18.328 12.752 4.389 16.227" fill="none" xmlns="http://www.w3.org/2000/svg">
  <defs>
    <clipPath id="clip0_11919_28676">
      <rect x="0.5" y="0.840088" width="40" height="40" rx="20" fill="white"/>
    </clipPath>
  </defs>
  <g clip-path="url(#clip0_11919_28676)">
    <path fill-rule="evenodd" clip-rule="evenodd" d="M20.5 16.8401C21.6 16.8401 22.5 15.9401 22.5 14.8401C22.5 13.7401 21.6 12.8401 20.5 12.8401C19.4 12.8401 18.5 13.7401 18.5 14.8401C18.5 15.9401 19.4 16.8401 20.5 16.8401ZM20.5 18.8401C19.4 18.8401 18.5 19.7401 18.5 20.8401C18.5 21.9401 19.4 22.8401 20.5 22.8401C21.6 22.8401 22.5 21.9401 22.5 20.8401C22.5 19.7401 21.6 18.8401 20.5 18.8401ZM18.5 26.8401C18.5 25.7401 19.4 24.8401 20.5 24.8401C21.6 24.8401 22.5 25.7401 22.5 26.8401C22.5 27.9401 21.6 28.8401 20.5 28.8401C19.4 28.8401 18.5 27.9401 18.5 26.8401Z" fill="#74796D"/>
  </g>
</svg>