<svg width="1440" height="2759" viewBox="0 0 1440 2759" fill="none" xmlns="http://www.w3.org/2000/svg">
<mask id="mask0_11405_22375" style="mask-type:alpha" maskUnits="userSpaceOnUse" x="0" y="0" width="1440" height="1781">
<rect width="1440" height="1771" transform="translate(0 10)" fill="url(#paint0_radial_11405_22375)"/>
</mask>
<g mask="url(#mask0_11405_22375)">
<g clip-path="url(#clip0_11405_22375)">
<g clip-path="url(#clip1_11405_22375)">
<line x1="65.5" x2="65.5" y2="2249" stroke="#0C015A" stroke-opacity="0.54"/>
<line x1="161.5" x2="161.5" y2="2249" stroke="#0C015A" stroke-opacity="0.54"/>
<line x1="257.5" x2="257.5" y2="2249" stroke="#0C015A" stroke-opacity="0.54"/>
<line x1="353.5" x2="353.5" y2="2249" stroke="#0C015A" stroke-opacity="0.54"/>
<line x1="449.5" x2="449.5" y2="2249" stroke="#0C015A" stroke-opacity="0.54"/>
<line x1="545.5" x2="545.5" y2="2249" stroke="#0C015A" stroke-opacity="0.54"/>
<line x1="641.5" x2="641.5" y2="2249" stroke="#0C015A" stroke-opacity="0.54"/>
<line x1="737.5" x2="737.5" y2="2249" stroke="#0C015A" stroke-opacity="0.54"/>
<line x1="833.5" x2="833.5" y2="2249" stroke="#0C015A" stroke-opacity="0.54"/>
<line x1="929.5" x2="929.5" y2="2249" stroke="#0C015A" stroke-opacity="0.54"/>
<line x1="1025.5" x2="1025.5" y2="2249" stroke="#0C015A" stroke-opacity="0.54"/>
<line x1="1121.5" x2="1121.5" y2="2249" stroke="#0C015A" stroke-opacity="0.54"/>
<line x1="1217.5" x2="1217.5" y2="2249" stroke="#0C015A" stroke-opacity="0.54"/>
<line x1="1313.5" x2="1313.5" y2="2249" stroke="#0C015A" stroke-opacity="0.54"/>
<line x1="1409.5" x2="1409.5" y2="2249" stroke="#0C015A" stroke-opacity="0.54"/>
</g>
<line x1="-415" y1="95.5" x2="1505" y2="95.5" stroke="#0C015A" stroke-opacity="0.54"/>
<line x1="-415" y1="191.5" x2="1505" y2="191.5" stroke="#0C015A" stroke-opacity="0.54"/>
<line x1="-415" y1="287.5" x2="1505" y2="287.5" stroke="#0C015A" stroke-opacity="0.54"/>
<line x1="-415" y1="383.5" x2="1505" y2="383.5" stroke="#0C015A" stroke-opacity="0.54"/>
<line x1="-415" y1="479.5" x2="1505" y2="479.5" stroke="#0C015A" stroke-opacity="0.54"/>
<line x1="-415" y1="575.5" x2="1505" y2="575.5" stroke="#0C015A" stroke-opacity="0.54"/>
<line x1="-415" y1="671.5" x2="1505" y2="671.5" stroke="#0C015A" stroke-opacity="0.54"/>
<line x1="-415" y1="767.5" x2="1505" y2="767.5" stroke="#0C015A" stroke-opacity="0.54"/>
<line x1="-415" y1="863.5" x2="1505" y2="863.5" stroke="#0C015A" stroke-opacity="0.54"/>
<line x1="-415" y1="959.5" x2="1505" y2="959.5" stroke="#0C015A" stroke-opacity="0.54"/>
<line x1="-415" y1="1055.5" x2="1505" y2="1055.5" stroke="#0C015A" stroke-opacity="0.54"/>
<line x1="-415" y1="1151.5" x2="1505" y2="1151.5" stroke="#0C015A" stroke-opacity="0.54"/>
<line x1="-415" y1="1247.5" x2="1505" y2="1247.5" stroke="#0C015A" stroke-opacity="0.54"/>
<line x1="-415" y1="1343.5" x2="1505" y2="1343.5" stroke="#0C015A" stroke-opacity="0.54"/>
</g>
</g>
<defs>
<radialGradient id="paint0_radial_11405_22375" cx="0" cy="0" r="1" gradientUnits="userSpaceOnUse" gradientTransform="translate(629.505 831.745) rotate(83.5002) scale(799.419 402.538)">
<stop/>
<stop offset="1" stop-opacity="0"/>
</radialGradient>
<clipPath id="clip0_11405_22375">
<rect width="1920" height="2249" fill="white" transform="translate(-415)"/>
</clipPath>
<clipPath id="clip1_11405_22375">
<rect width="1920" height="2249" fill="white" transform="translate(-415)"/>
</clipPath>
</defs>
</svg>
