<svg width="31" height="30" viewBox="0 0 31 30" fill="none" xmlns="http://www.w3.org/2000/svg">
<g clip-path="url(#clip0_11925_14014)">
<g clip-path="url(#clip1_11925_14014)">
<path d="M26.2785 16.1687C27.13 16.884 27.7424 17.8424 28.0338 18.9156C28.1914 19.5962 28.1808 20.305 28.0028 20.9807C27.8248 21.6563 27.4849 22.2783 27.0124 22.793C25.8358 24.141 24.3336 25.1652 22.649 25.768C20.4508 26.6325 18.114 27.0912 15.752 27.1216C12.9409 27.2281 10.1392 26.738 7.53114 25.6837C6.08307 25.1274 4.77227 24.2648 3.68844 23.1549C3.19749 22.6926 2.8132 22.1289 2.5623 21.5029C2.31141 20.8769 2.19994 20.2038 2.23566 19.5304C2.36214 18.3998 2.87742 17.3482 3.6934 16.5554C3.8124 16.4265 3.92149 16.2877 4.07023 16.1141C3.98722 16.6726 3.93755 17.2356 3.92149 17.8C3.95371 18.5249 4.13346 19.2356 4.44976 19.8886C4.76605 20.5417 5.21223 21.1233 5.76102 21.598C7.31743 22.999 9.23369 23.9383 11.2945 24.3102C14.7397 25.1247 18.3535 24.8386 21.6276 23.4921C23.2255 22.8986 24.6077 21.8377 25.5943 20.4477C26.0024 19.8687 26.2776 19.2067 26.4002 18.509C26.5227 17.8112 26.4897 17.0951 26.3033 16.4116C26.2908 16.3311 26.2825 16.25 26.2785 16.1687Z" fill="#009D1F"/>
<path d="M0.138296 19.0941C-0.23918 17.5428 -0.0510654 15.9078 0.668835 14.4828C1.71008 12.3359 3.45541 10.9327 5.56269 9.93604C7.41147 9.09954 9.38436 8.57031 11.4036 8.36922C13.6957 8.08668 16.0119 8.05675 18.3105 8.27997C21.3252 8.59234 24.206 9.31625 26.7099 11.1211C28.5997 12.3834 29.9257 14.3298 30.4088 16.5504C30.613 17.4628 30.6011 18.4102 30.3741 19.3172C30.3589 19.3727 30.3407 19.4273 30.3196 19.4808C30.2998 19.5085 30.2764 19.5335 30.2501 19.5552C30.1062 17.7864 29.3133 16.1334 28.0239 14.9142C26.9602 13.8573 25.7137 13.0022 24.3448 12.3904C21.8597 11.2641 19.1779 10.6358 16.4512 10.541C13.1732 10.3322 9.88904 10.8397 6.82706 12.0285C5.72035 12.4646 4.67261 13.0376 3.70828 13.7341C1.87371 15.0977 0.515127 16.7686 0.138296 19.0941Z" fill="#009D1F"/>
<path d="M29.9626 12.2467C29.2981 11.503 28.6883 10.7195 27.9792 10.0353C26.0977 8.30163 23.7688 7.12862 21.2558 6.64877C18.1583 6.00628 14.9789 5.85734 11.835 6.20748C9.81403 6.3715 7.83137 6.85169 5.95935 7.63051C3.88592 8.50094 2.09295 9.92674 0.777914 11.7509C0.719618 11.8348 0.651356 11.9114 0.574623 11.979C1.11824 10.4614 1.96132 9.06868 3.05378 7.88339C4.94552 5.93011 7.40645 4.62501 10.0847 4.15474C13.888 3.33519 17.8321 3.43719 21.588 4.45223C23.4815 4.92692 25.2286 5.86187 26.6739 7.17404C28.1193 8.48621 29.2183 10.135 29.8733 11.974C29.908 12.0732 29.9328 12.1723 29.9626 12.2467Z" fill="#009D1F"/>
<path d="M7.86853 14.5918C7.62558 16.4511 8.45361 17.6808 9.81219 18.613C11.4752 19.6937 13.44 20.2148 15.42 20.1005C17.2349 20.1189 19.0149 19.6015 20.537 18.613C21.0253 18.3238 21.4495 17.9381 21.7837 17.4794C22.1179 17.0208 22.355 16.4988 22.4807 15.9454C22.5377 15.5231 22.5659 15.0973 22.565 14.6711C23.4028 15.2072 24.0164 16.0305 24.2905 16.9866C24.3885 17.4014 24.3908 17.8331 24.2972 18.2489C24.2036 18.6647 24.0164 19.0538 23.75 19.3865C22.9789 20.3699 21.9486 21.1186 20.775 21.5483C18.4234 22.5168 15.8608 22.8585 13.3376 22.54C11.6307 22.3941 9.97683 21.8744 8.49328 21.0178C7.89727 20.6653 7.35464 20.2295 6.88183 19.7236C5.66208 18.3799 5.70175 16.8131 6.9215 15.4744C7.19916 15.1719 7.51154 14.924 7.86853 14.5918Z" fill="#009D1F"/>
<path d="M11.2846 13.4565C11.7804 15.2118 13.1093 15.7423 14.6414 15.9357C15.6199 16.0607 16.6135 15.8879 17.4924 15.4399C17.8851 15.2639 18.2306 14.9974 18.5003 14.6621C18.7701 14.3268 18.9565 13.9324 19.0444 13.5111C19.3598 13.6557 19.6433 13.8618 19.8783 14.1171C20.1132 14.3725 20.2949 14.6722 20.4128 14.9986C20.4784 15.2898 20.4549 15.594 20.3452 15.8717C20.2356 16.1494 20.0449 16.3876 19.798 16.5555C19.0652 17.1924 18.1717 17.616 17.2147 17.7802C15.2967 18.2496 13.2751 18.0357 11.4978 17.1753C11.0315 16.9216 10.6149 16.5856 10.2681 16.1836C10.0322 15.9435 9.90006 15.6203 9.90006 15.2837C9.90006 14.947 10.0322 14.6239 10.2681 14.3837C10.5876 14.0541 10.9271 13.7445 11.2846 13.4565Z" fill="#009D1F"/>
<path d="M23.5613 3.57945C19.4955 1.22425 10.4367 1.33829 6.20724 3.96124C6.65844 2.82579 10.9127 0.644129 13.4811 0.34663C17.3387 -0.149201 20.745 0.842462 23.5613 3.57945Z" fill="#009D1F"/>
<path d="M16.9322 13.2381C16.486 14.0116 14.0514 14.1008 13.4366 13.2381C13.8531 12.4249 16.4215 12.3753 16.9322 13.2381Z" fill="#009D1F"/>
<path d="M10.2904 15.151L10.3724 17.3386V28.1673H7.30976L7.30966 11.7965L9.78011 11.0859L19.5058 21.2216L19.3964 18.9246V10.8492L21.6187 11.3049L23.3284 11.9482V29.6534L22.0489 28.1673L10.2904 15.151Z" fill="#191919"/>
</g>
</g>
<defs>
<clipPath id="clip0_11925_14014">
<rect width="30.5848" height="29.4085" fill="white" transform="matrix(-1 0 0 -1 30.8794 29.8408)"/>
</clipPath>
<clipPath id="clip1_11925_14014">
<rect width="30.6027" height="35.1475" fill="white" transform="matrix(-1 0 0 -1 30.5526 35.36)"/>
</clipPath>
</defs>
</svg>
