<?xml version="1.0" encoding="utf-8"?>
<svg viewBox="0 2.843 132.926 35.157" fill="none" xmlns="http://www.w3.org/2000/svg">
  <defs>
    <clipPath id="clip0_11925_14012">
      <rect width="30.5848" height="29.4085" fill="white" transform="matrix(-1 0 0 -1 30.8794 32.8408)"/>
    </clipPath>
    <clipPath id="clip1_11925_14012">
      <rect width="30.6027" height="35.1475" fill="white" transform="matrix(-1 0 0 -1 30.5526 38.36)"/>
    </clipPath>
  </defs>
  <path d="M38.7549 30.856C37.26 30.856 36.0112 30.5643 35.0086 29.9809C34.0059 29.3793 33.2676 28.5863 32.7936 27.6019C32.3196 26.5992 32.0826 25.5054 32.0826 24.3204C32.0826 22.9896 32.3561 21.8229 32.903 20.8202C33.4681 19.8176 34.2429 19.0519 35.2273 18.5232C36.2118 17.9763 37.3238 17.7029 38.5635 17.7029C40.4959 17.7029 41.9269 18.2407 42.8567 19.3163C43.8046 20.3736 44.2786 21.8685 44.2786 23.8009C44.2786 24.2931 44.2513 24.8035 44.1966 25.3322H35.1726C35.3732 26.4443 35.7651 27.2464 36.3485 27.7386C36.9501 28.2308 37.7796 28.4769 38.8369 28.4769C39.712 28.4769 40.4321 28.404 40.9972 28.2582C41.5623 28.1123 42.0819 27.9118 42.5559 27.6566L43.4583 29.7622C43.0025 30.0538 42.3827 30.3091 41.5988 30.5278C40.8149 30.7466 39.8669 30.856 38.7549 30.856ZM41.4074 23.2813C41.4256 22.151 41.1795 21.358 40.669 20.9023C40.1586 20.4283 39.4294 20.1913 38.4814 20.1913C36.5673 20.1913 35.4643 21.2213 35.1726 23.2813H41.4074ZM51.7227 30.856C49.9909 30.856 48.7968 30.3455 48.1405 29.3246C47.5025 28.3037 47.1834 26.8818 47.1834 25.0588V18.031H50.1367V24.3204C50.1367 25.3596 50.1914 26.1708 50.3008 26.7542C50.4284 27.3193 50.6654 27.7386 51.0118 28.0121C51.3764 28.2855 51.9142 28.4222 52.6251 28.4222C53.1356 28.4222 53.6278 28.2764 54.1018 27.9847C54.5758 27.693 54.9586 27.3011 55.2503 26.8089C55.5602 26.2984 55.7152 25.7424 55.7152 25.1408V18.031H58.6411V30.5825H56.2347L55.9066 28.7504C55.4508 29.4614 54.8766 29.99 54.1838 30.3364C53.5093 30.6828 52.6889 30.856 51.7227 30.856ZM62.4876 18.031H65.4409V20.4921C65.7326 19.6535 66.2066 18.979 66.8629 18.4685C67.5192 17.9581 68.2666 17.7029 69.1052 17.7029C69.6885 17.7029 70.0896 17.7576 70.3084 17.8669L69.8982 20.8476C69.7341 20.7382 69.3786 20.6835 68.8317 20.6835C67.9749 20.6835 67.191 20.957 66.48 21.5039C65.7873 22.0508 65.4409 22.9258 65.4409 24.129V30.5825H62.4876V18.031ZM77.948 30.856C76.8177 30.856 75.7695 30.5916 74.8033 30.063C73.8553 29.5161 73.0896 28.7504 72.5063 27.766C71.9411 26.7633 71.6586 25.5966 71.6586 24.2658C71.6586 22.9532 71.9047 21.8047 72.3969 20.8202C72.9073 19.8358 73.6274 19.0701 74.5572 18.5232C75.4869 17.9763 76.5807 17.7029 77.8386 17.7029C78.5678 17.7029 79.2514 17.8305 79.8895 18.0857C80.5275 18.3409 81.0653 18.66 81.5029 19.0428C81.9404 19.4074 82.2321 19.772 82.3779 20.1366L82.4326 18.031H85.2492V30.5825H82.4599L82.4053 28.3675C82.0953 29.0238 81.5302 29.6072 80.7098 30.1176C79.8895 30.6099 78.9689 30.856 77.948 30.856ZM78.4402 28.3949C79.4793 28.3949 80.3544 28.0394 81.0653 27.3284C81.7763 26.5992 82.1318 25.6512 82.1318 24.4845V24.2931C82.1318 23.5092 81.9677 22.8073 81.6396 22.1875C81.3114 21.5677 80.8648 21.0846 80.2997 20.7382C79.7345 20.3918 79.1147 20.2186 78.4402 20.2186C77.2735 20.2186 76.3711 20.6015 75.733 21.3671C75.0949 22.1146 74.7759 23.0899 74.7759 24.2931C74.7759 25.5145 75.0858 26.5081 75.7057 27.2737C76.3437 28.0212 77.2552 28.3949 78.4402 28.3949ZM89.4668 10.4837H92.3927V30.5825H89.4668V10.4837ZM100.147 30.9654L94.9516 18.031H98.2878L100.968 26.0159L101.569 27.9574L102.171 26.0159L104.987 18.031H108.214L100.503 37.4735H97.4401L100.147 30.9654ZM117.678 10.4564L127.358 30.5825H123.83L122.107 26.6448H112.892L111.169 30.5825H107.751L117.377 10.4564H117.678ZM116.31 19.0155L114.123 23.8829H120.904L118.744 19.0428L117.568 16.2809H117.513L116.31 19.0155ZM129.397 10.4837H132.46V30.5825H129.397V10.4837Z" fill="#191919" transform="matrix(0.9999999999999999, 0, 0, 0.9999999999999999, 0, 0)"/>
  <g clip-path="url(#clip0_11925_14012)" transform="matrix(0.9999999999999999, 0, 0, 0.9999999999999999, 0, 0)">
    <g clip-path="url(#clip1_11925_14012)">
      <path d="M26.2785 19.1687C27.13 19.884 27.7424 20.8424 28.0338 21.9156C28.1914 22.5962 28.1808 23.305 28.0028 23.9807C27.8248 24.6563 27.4849 25.2783 27.0124 25.793C25.8358 27.141 24.3336 28.1652 22.649 28.768C20.4508 29.6325 18.114 30.0912 15.752 30.1216C12.9409 30.2281 10.1392 29.738 7.53114 28.6837C6.08307 28.1274 4.77227 27.2648 3.68844 26.1549C3.19749 25.6926 2.8132 25.1289 2.5623 24.5029C2.31141 23.8769 2.19994 23.2038 2.23566 22.5304C2.36214 21.3998 2.87742 20.3482 3.6934 19.5554C3.8124 19.4265 3.92149 19.2877 4.07023 19.1141C3.98722 19.6726 3.93755 20.2356 3.92149 20.8C3.95371 21.5249 4.13346 22.2356 4.44976 22.8886C4.76605 23.5417 5.21223 24.1233 5.76102 24.598C7.31743 25.999 9.23369 26.9383 11.2945 27.3102C14.7397 28.1247 18.3535 27.8386 21.6276 26.4921C23.2255 25.8986 24.6077 24.8377 25.5943 23.4477C26.0024 22.8687 26.2776 22.2067 26.4002 21.509C26.5227 20.8112 26.4897 20.0951 26.3033 19.4116C26.2908 19.3311 26.2825 19.25 26.2785 19.1687Z" fill="#009D1F"/>
      <path d="M0.138296 22.0941C-0.23918 20.5428 -0.0510654 18.9078 0.668835 17.4828C1.71008 15.3359 3.45541 13.9327 5.56269 12.936C7.41147 12.0995 9.38436 11.5703 11.4036 11.3692C13.6957 11.0867 16.0119 11.0568 18.3105 11.28C21.3252 11.5923 24.206 12.3163 26.7099 14.1211C28.5997 15.3834 29.9257 17.3298 30.4088 19.5504C30.613 20.4628 30.6011 21.4102 30.3741 22.3172C30.3589 22.3727 30.3407 22.4273 30.3196 22.4808C30.2998 22.5085 30.2764 22.5335 30.2501 22.5552C30.1062 20.7864 29.3133 19.1334 28.0239 17.9142C26.9602 16.8573 25.7137 16.0022 24.3448 15.3904C21.8597 14.2641 19.1779 13.6358 16.4512 13.541C13.1732 13.3322 9.88904 13.8397 6.82706 15.0285C5.72035 15.4646 4.67261 16.0376 3.70828 16.7341C1.87371 18.0977 0.515127 19.7686 0.138296 22.0941Z" fill="#009D1F"/>
      <path d="M29.9626 15.2467C29.2981 14.503 28.6883 13.7195 27.9792 13.0353C26.0977 11.3016 23.7688 10.1286 21.2558 9.64877C18.1583 9.00628 14.9789 8.85734 11.835 9.20748C9.81403 9.3715 7.83137 9.85169 5.95935 10.6305C3.88592 11.5009 2.09295 12.9267 0.777914 14.7509C0.719618 14.8348 0.651356 14.9114 0.574623 14.979C1.11824 13.4614 1.96132 12.0687 3.05378 10.8834C4.94552 8.93011 7.40645 7.62501 10.0847 7.15474C13.888 6.33519 17.8321 6.43719 21.588 7.45223C23.4815 7.92692 25.2286 8.86187 26.6739 10.174C28.1193 11.4862 29.2183 13.135 29.8733 14.974C29.908 15.0732 29.9328 15.1723 29.9626 15.2467Z" fill="#009D1F"/>
      <path d="M7.86853 17.5918C7.62558 19.4511 8.45361 20.6808 9.81219 21.613C11.4752 22.6937 13.44 23.2148 15.42 23.1005C17.2349 23.1189 19.0149 22.6015 20.537 21.613C21.0253 21.3238 21.4495 20.9381 21.7837 20.4794C22.1179 20.0208 22.355 19.4988 22.4807 18.9454C22.5377 18.5231 22.5659 18.0973 22.565 17.6711C23.4028 18.2072 24.0164 19.0305 24.2905 19.9866C24.3885 20.4014 24.3908 20.8331 24.2972 21.2489C24.2036 21.6647 24.0164 22.0538 23.75 22.3865C22.9789 23.3699 21.9486 24.1186 20.775 24.5483C18.4234 25.5168 15.8608 25.8585 13.3376 25.54C11.6307 25.3941 9.97683 24.8744 8.49328 24.0178C7.89727 23.6653 7.35464 23.2295 6.88183 22.7236C5.66208 21.3799 5.70175 19.8131 6.9215 18.4744C7.19916 18.1719 7.51154 17.924 7.86853 17.5918Z" fill="#009D1F"/>
      <path d="M11.2846 16.4565C11.7804 18.2118 13.1093 18.7423 14.6414 18.9357C15.6199 19.0607 16.6135 18.8879 17.4924 18.4399C17.8851 18.2639 18.2306 17.9974 18.5003 17.6621C18.7701 17.3268 18.9565 16.9324 19.0444 16.5111C19.3598 16.6557 19.6433 16.8618 19.8783 17.1171C20.1132 17.3725 20.2949 17.6722 20.4128 17.9986C20.4784 18.2898 20.4549 18.594 20.3452 18.8717C20.2356 19.1494 20.0449 19.3876 19.798 19.5555C19.0652 20.1924 18.1717 20.616 17.2147 20.7802C15.2967 21.2496 13.2751 21.0357 11.4978 20.1753C11.0315 19.9216 10.6149 19.5856 10.2681 19.1836C10.0322 18.9435 9.90006 18.6203 9.90006 18.2837C9.90006 17.947 10.0322 17.6239 10.2681 17.3837C10.5876 17.0541 10.9271 16.7445 11.2846 16.4565Z" fill="#009D1F"/>
      <path d="M23.5613 6.57945C19.4955 4.22425 10.4367 4.33829 6.20724 6.96124C6.65844 5.82579 10.9127 3.64413 13.4811 3.34663C17.3387 2.8508 20.745 3.84246 23.5613 6.57945Z" fill="#009D1F"/>
      <path d="M16.9322 16.2381C16.486 17.0116 14.0514 17.1008 13.4366 16.2381C13.8531 15.4249 16.4215 15.3753 16.9322 16.2381Z" fill="#009D1F"/>
      <path d="M10.2904 18.151L10.3724 20.3386V31.1673H7.30976L7.30966 14.7965L9.78011 14.0859L19.5058 24.2216L19.3964 21.9246V13.8492L21.6187 14.3049L23.3284 14.9482V32.6534L22.0489 31.1673L10.2904 18.151Z" fill="#191919"/>
    </g>
  </g>
</svg>