<svg width="73" height="67" viewBox="0 0 73 67" fill="none" xmlns="http://www.w3.org/2000/svg">
<g clip-path="url(#clip0_12048_28488)">
<path d="M32.7259 1.51172L5.81931 12.6769C4.32308 13.2977 4.33859 15.4289 5.84441 16.0277L32.8632 26.7726C35.2372 27.7169 37.881 27.7169 40.255 26.7726L67.2743 16.0274C68.7796 15.4292 68.7954 13.298 67.2986 12.6769L40.3926 1.51144C37.9379 0.492931 35.1805 0.493214 32.7259 1.51172Z" fill="#FFBF00"/>
<path d="M38.9565 32.6398V59.482C38.9565 60.7587 40.2397 61.633 41.4232 61.1626L71.5306 49.4431C71.8664 49.3096 72.1544 49.078 72.3573 48.7784C72.5603 48.4788 72.6687 48.1249 72.6687 47.7627V20.9202C72.6687 19.6435 71.3851 18.7695 70.2017 19.2398L40.0942 30.9591C39.7584 31.0926 39.4704 31.3242 39.2674 31.6239C39.0645 31.9236 38.9561 32.2775 38.9562 32.6398" fill="#26B5F8"/>
<path d="M31.926 34.0251L22.9909 38.3514L22.0836 38.7913L3.22171 47.8544C2.02613 48.4328 0.5 47.5591 0.5 46.2272V21.0331C0.5 20.5511 0.746505 20.135 1.07706 19.8216C1.21256 19.6866 1.36615 19.5711 1.5334 19.4786C1.98411 19.2073 2.62716 19.1349 3.17376 19.3518L31.7757 30.7164C33.2296 31.2948 33.3438 33.3381 31.926 34.0251Z" fill="#ED3049"/>
<path d="M31.926 34.0248L22.9909 38.3512L1.07678 19.8216C1.21229 19.6866 1.36588 19.5711 1.53313 19.4786C1.98383 19.2073 2.62689 19.1349 3.17348 19.3518L31.7754 30.7164C33.2293 31.2948 33.3438 33.3378 31.926 34.0248Z" fill="black" fill-opacity="0.25"/>
</g>
<defs>
<clipPath id="clip0_12048_28488">
<rect width="72" height="66" fill="white" transform="translate(0.5 0.840332)"/>
</clipPath>
</defs>
</svg>
