<svg width="63" height="66" viewBox="0 0 63 66" fill="none" xmlns="http://www.w3.org/2000/svg">
<path d="M55.3956 29.2345V22.0226H28.0863V7.59866H21.259V22.0226H7.60442V29.2345H21.259V58.0823H28.0863V29.2345H55.3956ZM55.3956 0.386719C57.1024 0.386719 58.8092 1.10791 60.1406 2.58636C61.5401 3.99269 62.2229 5.79568 62.2229 7.59866V58.0823C62.2229 59.8853 61.5401 61.6882 60.1406 63.0946C58.8092 64.573 57.1024 65.2942 55.3956 65.2942H7.60442C5.8976 65.2942 4.19077 64.573 2.85944 63.0946C1.45985 61.6882 0.777115 59.8853 0.777115 58.0823V7.59866C0.777115 5.79568 1.45985 3.99269 2.85944 2.58636C4.19077 1.10791 5.8976 0.386719 7.60442 0.386719H55.3956Z" fill="#099250"/>
</svg>
